<?xml version="1.0" encoding="UTF-8" standalone="no"?>
<!-- Created with Inkscape (http://www.inkscape.org/) -->

<svg
   width="55.00782mm"
   height="25.317884mm"
   viewBox="0 0 55.00782 25.317884"
   version="1.1"
   id="svg1"
   xml:space="preserve"
   inkscape:version="1.4.2 (ebf0e940d0, 2025-05-08)"
   sodipodi:docname="logo.svg"
   xmlns:inkscape="http://www.inkscape.org/namespaces/inkscape"
   xmlns:sodipodi="http://sodipodi.sourceforge.net/DTD/sodipodi-0.dtd"
   xmlns="http://www.w3.org/2000/svg"
   xmlns:svg="http://www.w3.org/2000/svg"><sodipodi:namedview
     id="namedview1"
     pagecolor="#ffffff"
     bordercolor="#000000"
     borderopacity="0.25"
     inkscape:showpageshadow="2"
     inkscape:pageopacity="0.0"
     inkscape:pagecheckerboard="0"
     inkscape:deskcolor="#d1d1d1"
     inkscape:document-units="mm"
     inkscape:zoom="5.4448936"
     inkscape:cx="159.78274"
     inkscape:cy="333.52351"
     inkscape:window-width="1920"
     inkscape:window-height="975"
     inkscape:window-x="0"
     inkscape:window-y="0"
     inkscape:window-maximized="1"
     inkscape:current-layer="layer1"><inkscape:page
       x="2.8090535e-16"
       y="0"
       width="55.007816"
       height="25.317884"
       id="page2"
       margin="0"
       bleed="0" /></sodipodi:namedview><defs
     id="defs1" /><g
     inkscape:label="Layer 1"
     inkscape:groupmode="layer"
     id="layer1"
     transform="translate(-27.539801,-52.818727)"><path
       style="font-size:6.25244px;font-family:'ADLaM Display';-inkscape-font-specification:'ADLaM Display, Normal';fill:#1a1a1a;stroke-width:0.147551"
       d="m 28.792103,74.779713 q -0.09023,0.0387 -0.12891,0.0387 -0.03868,0 -0.08165,-0.0301 -0.09883,-0.0687 -0.22774,-0.33516 -0.124618,-0.27072 -0.124618,-0.82932 v -4.97588 q 0,-0.10317 0.04297,-0.15897 0.180473,-0.23635 0.528526,-0.51135 0.06016,-0.0429 0.107419,-0.0429 0.05586,0 0.107419,0.0429 0.184768,0.1418 0.30938,0.26642 0.128911,0.12456 0.219144,0.24493 0.04297,0.0559 0.04297,0.15897 v 4.71377 q 0,0.28359 0.04726,0.48555 0.04726,0.19767 0.111725,0.31798 0.07305,0.1418 -0.05586,0.20196 z m 4.129376,0.0172 q -0.726185,0 -1.263305,-0.23204 -0.537119,-0.23634 -0.83361,-0.7305 -0.296489,-0.49413 -0.296489,-1.27618 0,-1.17308 0.601574,-1.77465 0.601573,-0.60157 1.598468,-0.60157 0.64884,0 1.095724,0.23204 0.451179,0.23203 0.683216,0.64024 0.236332,0.40821 0.236332,0.93244 0,0.51134 -0.262114,0.7133 -0.262115,0.20194 -0.764859,0.20194 h -1.843394 q 0.03437,0.4426 0.322272,0.67464 0.292193,0.23203 0.79064,0.23203 0.39532,0 0.631652,-0.11597 0.24063,-0.12034 0.335163,-0.18907 0.08165,-0.0601 0.184769,-0.0559 0.08165,0 0.232035,0.0343 0.154691,0.0301 0.305085,0.11597 0.107419,0.0559 0.107419,0.1547 0,0.0559 -0.02148,0.15899 -0.01295,0.0601 -0.04297,0.17617 -0.03008,0.11175 -0.07734,0.21055 -0.02578,0.0473 -0.08165,0.0902 -0.08594,0.0601 -0.279303,0.15898 -0.189065,0.0988 -0.519932,0.17188 -0.330865,0.0774 -0.837906,0.0774 z m -1.057051,-2.77585 h 1.400807 q 0.219146,0 0.219146,-0.20195 0,-0.30509 -0.193363,-0.51134 -0.189067,-0.21055 -0.571495,-0.21055 -0.416805,0 -0.614466,0.26641 -0.193363,0.26641 -0.240629,0.65743 z"
       id="text18"
       aria-label="le" /><path
       style="font-size:15.7801px;font-family:'ADLaM Display';-inkscape-font-specification:'ADLaM Display, Normal';fill:#ef7627;stroke-width:0.75833"
       d="m 77.627205,59.961373 v 4.4998 c 0,0.1541 -0.0334,0.26197 -0.10016,0.32361 -0.0617,0.0565 -0.16954,0.0848 -0.32362,0.0848 h -1.58726 c -0.1541,0 -0.26454,-0.0283 -0.33132,-0.0848 -0.0617,-0.0617 -0.0925,-0.16954 -0.0925,-0.32361 v -4.09913 c 0,-0.55991 -0.11814,-0.96828 -0.35443,-1.22512 -0.23629,-0.25683 -0.55734,-0.38525 -0.96314,-0.38525 -0.40581,0 -0.71915,0.0873 -0.94003,0.26197 -0.21575,0.17465 -0.38269,0.39553 -0.50083,0.66264 v 8.47863 c 0,0.55523 -2.43486,1.53324 -2.43486,0.68721 v -10.83785 c 0,-0.12328 0.0257,-0.21831 0.077,-0.28509 0.10787,-0.14383 0.23629,-0.29022 0.38525,-0.43919 0.15411,-0.14897 0.3416,-0.30821 0.56248,-0.47772 0.0668,-0.0513 0.13099,-0.077 0.19263,-0.077 0.0565,0 0.12068,0.0257 0.19263,0.077 0.21574,0.16951 0.40066,0.33132 0.55476,0.48542 0.15411,0.15411 0.29023,0.31335 0.40838,0.47772 h 0.0385 c 0.0873,-0.11301 0.21831,-0.24399 0.39296,-0.39296 0.17465,-0.1541 0.41865,-0.29022 0.73199,-0.40837 0.31848,-0.11815 0.72428,-0.17722 1.21741,-0.17722 0.48285,0 0.94259,0.0976 1.37922,0.29279 0.43662,0.1952 0.79362,0.52395 1.07101,0.98626 0.28252,0.46231 0.42378,1.09413 0.42378,1.89546 z"
       id="path14"
       sodipodi:nodetypes="cscsscssssccssscccscsccccssccc" /><path
       style="font-size:15.7801px;font-family:'ADLaM Display';-inkscape-font-specification:'ADLaM Display, Normal';fill:#ef7627;stroke-width:0.75833"
       d="m 63.817956,68.766363 q -1.941692,0 -3.074346,-1.03249 -1.132653,-1.03249 -1.132653,-3.07435 0,-2.09579 1.171179,-3.12828 1.178884,-1.04019 3.143692,-1.04019 1.895461,0 3.03582,1.02478 1.140358,1.01708 1.140358,3.005 0,2.07268 -1.140358,3.1591 -1.140359,1.08643 -3.143692,1.08643 z m 0.07705,-1.86464 q 0.847564,0 1.279051,-0.52395 0.431487,-0.53166 0.431487,-1.81071 0,-1.21741 -0.439192,-1.71054 -0.431487,-0.50083 -1.286756,-0.50083 -0.824449,0 -1.302167,0.53936 -0.470012,0.53165 -0.470012,1.73365 0,1.25594 0.446897,1.76448 0.454603,0.50854 1.340692,0.50854 z"
       id="path13" /><path
       style="font-size:15.7801px;font-family:'ADLaM Display';-inkscape-font-specification:'ADLaM Display, Normal';fill:#ef7627;stroke-width:0.75833"
       d="m 55.054513,67.150603 v -8.37582 h -0.870679 c -0.154103,0 -0.261975,-0.0308 -0.323616,-0.0925 -0.05651,-0.0668 -0.08476,-0.17722 -0.08476,-0.33132 v -0.94773 c 0,-0.1541 0.02825,-0.26197 0.08476,-0.32362 0.06164,-0.0668 0.169512,-0.10016 0.323616,-0.10016 h 0.870679 v -1.24053 c 0,-0.12328 0.02568,-0.21831 0.07705,-0.28509 0.215744,-0.28252 0.531654,-0.58816 0.947731,-0.91691 0.07192,-0.0513 0.136124,-0.077 0.192628,-0.077 0.06164,0 0.123281,0.0257 0.184923,0.077 0.220881,0.16951 0.405804,0.32875 0.554769,0.47772 0.154103,0.14897 0.28509,0.29536 0.392962,0.43919 0.05137,0.0668 0.07705,0.16181 0.07705,0.28509 v 1.24053 h 10.207722 c 0.154102,0 0.259405,0.0334 0.31591,0.10016 0.06164,0.0617 0.09246,0.16954 0.09246,0.32362 v 0.94773 c 0,0.1541 -0.03082,0.26454 -0.09246,0.33132 -0.05651,0.0617 -0.16181,0.0925 -0.31591,0.0925 H 57.481626 v 8.37723 c 0,0.35858 -2.427113,-10e-4 -2.427113,-10e-4 z"
       id="path12"
       sodipodi:nodetypes="ccscsscscsccscccscscsscscscc" /><path
       style="font-size:15.7801px;font-family:'ADLaM Display';-inkscape-font-specification:'ADLaM Display, Normal';fill:#ef7627;stroke-width:0.75833"
       d="m 49.101164,65.062173 q -0.824448,0 -1.371512,-0.1387 -0.539359,-0.13869 -0.87068,-0.33132 -0.323615,-0.20033 -0.508538,-0.36214 -0.138692,-0.13098 -0.03082,-0.29279 l 0.785923,-1.16348 q 0.169513,-0.24656 0.385257,-0.0308 0.223448,0.21575 0.600999,0.42379 0.385257,0.20033 0.955436,0.20033 0.508539,0 0.832154,-0.16951 0.33132,-0.17722 0.33132,-0.50854 0,-0.23116 -0.146397,-0.37755 -0.146397,-0.1464 -0.516244,-0.3005 -0.369846,-0.15411 -1.032487,-0.39297 -0.978551,-0.35443 -1.479384,-0.85526 -0.500833,-0.50084 -0.500833,-1.46398 0,-0.88609 0.485423,-1.44086 0.493128,-0.55477 1.255936,-0.80904 0.770512,-0.26197 1.602666,-0.26197 1.055602,0 1.479384,0.20033 0.431487,0.19263 0.554769,0.3005 0.115577,0.10017 0.161808,0.23116 0.100167,0.3005 0.154103,0.79363 0.03082,0.28508 -0.146398,0.37755 -0.09246,0.0539 -0.292795,0.11557 -0.200333,0.0616 -0.400666,0.10788 -0.200334,0.0462 -0.3005,0.0462 -0.03082,0 -0.06935,-0.0154 -0.03082,-0.0231 -0.115577,-0.10017 -0.100167,-0.10017 -0.346731,-0.23115 -0.238859,-0.13099 -0.662641,-0.13099 -0.416077,0 -0.701166,0.13869 -0.277385,0.13099 -0.277385,0.47001 0,0.36985 0.354436,0.55477 0.362141,0.18493 1.186589,0.47772 0.647231,0.22345 1.124949,0.49313 0.485423,0.26197 0.747397,0.69346 0.261975,0.42378 0.261975,1.14806 0,0.94003 -0.516244,1.51791 -0.508538,0.57018 -1.309871,0.83216 -0.793629,0.25427 -1.664308,0.25427 z"
       id="path11" /><path
       style="font-size:15.7801px;font-family:'ADLaM Display';-inkscape-font-specification:'ADLaM Display, Normal';fill:#ef7627;stroke-width:0.921725"
       d="m 44.280241,68.032633 q 0,0.34149 -0.100166,0.47809 -0.09246,0.12528 -0.323616,0.12528 h -1.587256 q -0.231154,0 -0.33132,-0.12528 -0.09246,-0.13665 -0.09246,-0.47809 v -10.44981 q 0,-0.34149 0.09246,-0.46672 0.100166,-0.13665 0.33132,-0.13665 h 1.587256 q 0.231154,0 0.323616,0.13665 0.100166,0.12528 0.100166,0.46672 z"
       id="path10" /><path
       style="font-size:15.7801px;font-family:'ADLaM Display';-inkscape-font-specification:'ADLaM Display, Normal';fill:#a30262;fill-opacity:1;stroke-width:0.642237"
       d="m 46.093045,77.866053 q -0.230987,0 -0.323383,-0.0719 -0.08474,-0.0664 -0.08474,-0.23227 v -1.13928 q 0,-0.16591 0.08474,-0.23781 0.09243,-0.0664 0.323383,-0.0664 h 7.06829 q 0.230989,0 0.315689,0.0664 0.09243,0.0719 0.09243,0.23781 v 1.13928 q 0,0.16591 -0.09243,0.23227 -0.08474,0.0719 -0.315689,0.0719 z"
       id="path10-6" /><path
       style="font-size:15.7801px;font-family:'ADLaM Display';-inkscape-font-specification:'ADLaM Display, Normal';fill:#a30262;fill-opacity:1;stroke-width:0.642237"
       d="m 74.474405,77.781143 q -0.23099,0 -0.32339,-0.0719 -0.0847,-0.0664 -0.0847,-0.23227 v -1.13928 q 0,-0.16591 0.0847,-0.23781 0.0924,-0.0664 0.32339,-0.0664 h 7.06829 q 0.23098,0 0.31568,0.0664 0.0924,0.0719 0.0924,0.23781 v 1.13928 q 0,0.16591 -0.0924,0.23227 -0.0847,0.0719 -0.31568,0.0719 z"
       id="path10-6-9" /><path
       style="font-size:15.7801px;font-family:'ADLaM Display';-inkscape-font-specification:'ADLaM Display, Normal';fill:#a30262;fill-opacity:1;stroke-width:0.642237"
       d="m 27.947881,77.808673 q -0.23098,0 -0.32338,-0.0719 -0.0847,-0.0664 -0.0847,-0.23227 v -1.13928 q 0,-0.16591 0.0847,-0.23781 0.0924,-0.0664 0.32338,-0.0664 h 7.06829 q 0.23099,0 0.31569,0.0664 0.0924,0.0719 0.0924,0.23781 v 1.13928 q 0,0.16591 -0.0924,0.23227 -0.0847,0.0719 -0.31569,0.0719 z"
       id="path10-6-8" /><path
       style="font-size:15.7801px;font-family:'ADLaM Display';-inkscape-font-specification:'ADLaM Display, Normal';fill:#ef7627;stroke-width:0.75833"
       d="m 41.490985,54.390573 q 0,-0.10017 0.06164,-0.17722 0.06164,-0.077 0.161808,-0.20034 0.215743,-0.24656 0.500833,-0.51624 0.28509,-0.27738 0.577885,-0.53165 0.184923,-0.1464 0.277384,-0.1464 0.09246,0 0.28509,0.1464 0.624115,0.53936 1.063307,1.04789 0.100167,0.11558 0.161808,0.20034 0.06935,0.077 0.06935,0.17722 0,0.10016 -0.06935,0.17721 -0.06164,0.077 -0.169513,0.20804 -0.208038,0.23886 -0.485423,0.51625 -0.277384,0.26967 -0.570179,0.51624 -0.107872,0.0925 -0.169513,0.12328 -0.06164,0.0231 -0.115577,0.0231 -0.05394,0 -0.115577,-0.0231 -0.05394,-0.0308 -0.177218,-0.12328 -0.308205,-0.24657 -0.577884,-0.51624 -0.26968,-0.27739 -0.485423,-0.53166 -0.100167,-0.12328 -0.161808,-0.19263 -0.06164,-0.077 -0.06164,-0.17721 z"
       id="path9" /><path
       style="font-size:15.7801px;font-family:'ADLaM Display';-inkscape-font-specification:'ADLaM Display, Normal';fill:#d52d00;fill-opacity:1;stroke-width:0.75833"
       d="m 36.891025,56.786863 q 1.124948,0 1.84923,0.50854 0.731987,0.50083 1.086423,1.38692 0.362141,0.87839 0.362141,2.01874 0,1.23282 -0.423782,2.21908 -0.416077,0.98626 -1.23282,1.56414 -0.816744,0.57789 -2.026449,0.57789 -0.624115,0 -1.032487,-0.1464 -0.400666,-0.13869 -0.64723,-0.33132 -0.238859,-0.20033 -0.377551,-0.36214 h -0.03082 v 3.28238 q 0,0.18492 -0.07705,0.28509 -0.323616,0.42378 -0.947731,0.91691 -0.107872,0.0771 -0.192628,0.0771 -0.09246,0 -0.192628,-0.0771 -0.331321,-0.25427 -0.562474,-0.47772 -0.223449,-0.22345 -0.385257,-0.43919 -0.07705,-0.10017 -0.07705,-0.28509 v -9.50042 q 0,-0.18492 0.07705,-0.28509 0.161808,-0.21574 0.385257,-0.43919 0.231153,-0.22345 0.562474,-0.47772 0.100166,-0.077 0.208038,-0.077 0.100167,0 0.208039,0.077 0.323615,0.25427 0.554769,0.48542 0.231154,0.23116 0.408371,0.47772 h 0.03853 q 0.130987,-0.16181 0.400667,-0.39296 0.269679,-0.23115 0.762807,-0.40837 0.500834,-0.17722 1.302167,-0.17722 z m -0.947731,6.3105 q 0.832154,0 1.286756,-0.57789 0.462308,-0.58559 0.462308,-1.68742 0,-2.08038 -1.710538,-2.08038 -0.724282,0 -1.071013,0.3005 -0.346731,0.29279 -0.493128,0.62411 v 1.67202 q 0,0.74739 0.385256,1.24823 0.385257,0.50083 1.140359,0.50083 z"
       id="text19" /><path
       style="font-size:15.7801px;font-family:'ADLaM Display';-inkscape-font-specification:'ADLaM Display, Normal';fill:#a30262;stroke-width:0.752342"
       d="m 78.263565,74.432373 q -1.9417,0 -3.07435,-1.03248 -1.13265,-1.03249 -1.13265,-3.07435 0,-2.09579 1.17118,-3.12828 1.17888,-1.04019 3.14369,-1.04019 1.89546,0 3.03582,1.02478 1.14036,1.01708 1.14036,3.005 0,2.07268 -1.14036,3.1591 -1.14036,1.08642 -3.14369,1.08642 z m 0.077,-1.86464 q 0.84756,0 1.27905,-0.52395 0.43148,-0.53165 0.43148,-1.8107 0,-1.21741 -0.43919,-1.71054 -0.43148,-0.50083 -1.28675,-0.50083 -0.82445,0 -1.30217,0.53936 -0.47001,0.53165 -0.47001,1.73365 0,1.25594 0.44689,1.76447 0.45461,0.50854 1.3407,0.50854 z"
       id="path18" /><path
       style="font-size:15.7801px;font-family:'ADLaM Display';-inkscape-font-specification:'ADLaM Display, Normal';fill:#a30262;stroke-width:0.752342"
       d="m 67.561137,78.136563 q -1.024782,0 -1.749064,-0.50083 -0.716577,-0.50854 -1.094128,-1.39463 -0.369846,-0.89379 -0.369846,-2.05727 0,-1.53332 0.539359,-2.48105 0.547064,-0.95543 1.53332,-1.40233 0.993962,-0.4469 2.342359,-0.4469 0.462307,0 0.762807,0.0462 0.308201,0.0462 0.439191,0.0848 v -2.87401 q 0,-0.18493 0.077,-0.28509 0.32362,-0.42379 0.94773,-0.91691 0.10788,-0.077 0.19263,-0.077 0.10017,0 0.19263,0.077 0.33132,0.25427 0.55477,0.47771 0.23115,0.22345 0.39296,0.4392 0.077,0.10016 0.077,0.28509 v 10.47897 q 0,0.1464 -0.10016,0.25427 -0.10017,0.10017 -0.25427,0.10017 h -1.14807 q -0.12328,0 -0.22345,-0.0308 -0.0925,-0.0385 -0.17721,-0.13869 l -0.47772,-0.61641 h -0.0539 q -0.10017,0.1541 -0.362139,0.39296 -0.25427,0.23116 -0.747398,0.40838 -0.485423,0.17721 -1.294461,0.17721 z m 0.747397,-1.97251 q 0.693462,0 1.086423,-0.26197 0.400668,-0.26198 0.570178,-0.66264 v -3.22845 q -0.12328,-0.0771 -0.40837,-0.18493 -0.28509,-0.10787 -0.801333,-0.10787 -0.955436,0 -1.433154,0.62412 -0.477718,0.62411 -0.477718,1.67972 0,1.09412 0.400667,1.61807 0.400666,0.52395 1.063307,0.52395 z"
       id="path17" /><path
       style="font-size:15.7801px;font-family:'ADLaM Display';-inkscape-font-specification:'ADLaM Display, Normal';fill:#a30262;stroke-width:0.752342"
       d="m 58.684833,78.136563 q -0.993962,0 -1.672013,-0.14639 -0.678051,-0.1464 -1.140359,-0.36215 -0.462307,-0.21574 -0.809038,-0.43148 v -10.08601 q 0,-0.18493 0.07705,-0.28509 0.323616,-0.42379 0.947731,-0.91691 0.107872,-0.077 0.192628,-0.077 0.100167,0 0.192628,0.077 0.331321,0.25427 0.554769,0.47771 0.231154,0.22345 0.392962,0.4392 0.07705,0.10016 0.07705,0.28509 v 3.73698 h 0.03082 q 0.308205,-0.39296 0.855269,-0.68575 0.547064,-0.3005 1.525615,-0.3005 1.094128,0 1.803,0.50854 0.708871,0.50083 1.055602,1.38692 0.346731,0.87838 0.346731,2.01874 0,1.23282 -0.408372,2.22678 -0.408372,0.98626 -1.379218,1.56414 -0.963141,0.57018 -2.642858,0.57018 z m 0.100166,-1.86464 q 0.893795,0 1.363808,-0.59329 0.470013,-0.601 0.470013,-1.71054 0,-1.12495 -0.423782,-1.63349 -0.416077,-0.50854 -1.209705,-0.50854 -0.639526,0 -0.978551,0.26198 -0.331321,0.26197 -0.508539,0.66264 v 3.18222 q 0.169513,0.12328 0.477718,0.23115 0.31591,0.10787 0.809038,0.10787 z"
       id="path16" /><path
       style="font-size:15.7801px;font-family:'ADLaM Display';-inkscape-font-specification:'ADLaM Display, Normal';fill:#a30262;stroke-width:0.752342"
       d="m 50.101321,74.432373 q -1.302167,0 -2.265308,-0.41607 -0.963141,-0.42379 -1.494794,-1.30988 -0.531654,-0.88608 -0.531654,-2.28842 0,-2.1035 1.078718,-3.18222 1.078717,-1.07871 2.866307,-1.07871 1.163474,0 1.964807,0.41607 0.809039,0.41608 1.225115,1.14807 0.423782,0.73198 0.423782,1.67201 0,0.91691 -0.470012,1.27905 -0.470013,0.36214 -1.371513,0.36214 H 48.22127 q 0.06164,0.79363 0.577884,1.20971 0.523949,0.41607 1.417743,0.41607 0.708872,0 1.132654,-0.20803 0.431487,-0.21575 0.601,-0.33903 0.146397,-0.10787 0.33132,-0.10017 0.146398,0 0.416077,0.0616 0.277385,0.0539 0.547064,0.20804 0.192629,0.10017 0.192629,0.27739 0,0.10016 -0.03853,0.28509 -0.02311,0.10787 -0.07705,0.31591 -0.05394,0.20033 -0.138693,0.37755 -0.04623,0.0848 -0.146397,0.16181 -0.154103,0.10787 -0.500833,0.28509 -0.339026,0.17721 -0.932321,0.3082 -0.593294,0.13869 -1.502499,0.13869 z m -1.895462,-4.97751 h 2.511872 q 0.392961,0 0.392961,-0.36214 0,-0.54706 -0.346731,-0.91691 -0.339025,-0.37755 -1.024781,-0.37755 -0.747398,0 -1.101834,0.47772 -0.34673,0.47771 -0.431487,1.17888 z"
       id="path15" /><path
       style="font-size:15.7801px;font-family:'ADLaM Display';-inkscape-font-specification:'ADLaM Display, Normal';fill:#b55690;fill-opacity:1;stroke-width:0.752342"
       d="m 38.959707,77.535563 q 0,0.23116 -0.100167,0.32362 -0.09246,0.0848 -0.323615,0.0848 h -1.587256 q -0.231154,0 -0.33132,-0.0848 -0.09246,-0.0925 -0.09246,-0.32362 v -10.42503 q 0,-0.18493 0.07705,-0.28509 0.323616,-0.42379 0.947731,-0.91691 0.107872,-0.077 0.192628,-0.077 0.100167,0 0.192628,0.077 0.331321,0.25427 0.554769,0.47771 0.231154,0.22345 0.392962,0.4392 0.07705,0.10016 0.07705,0.28509 v 3.73698 h 0.03082 q 0.169512,-0.22345 0.439192,-0.44689 0.269679,-0.23116 0.716577,-0.38526 0.454602,-0.1541 1.155769,-0.1541 0.708871,0 1.363807,0.29279 0.654936,0.2928 1.071013,0.98626 0.416077,0.69346 0.416077,1.89546 v 4.49979 q 0,0.23116 -0.100167,0.32362 -0.09246,0.0848 -0.323615,0.0848 h -1.587255 q -0.231154,0 -0.331321,-0.0848 -0.09246,-0.0925 -0.09246,-0.32362 v -4.07601 q 0,-0.85527 -0.354436,-1.24052 -0.354436,-0.39297 -0.963141,-0.39297 -0.601,0 -0.93232,0.26198 -0.331321,0.26197 -0.508539,0.66264 z"
       id="text20" /></g></svg>
