<?xml version="1.0" encoding="UTF-8" standalone="no"?>
<!-- Created with Inkscape (http://www.inkscape.org/) -->

<svg
   width="16.543463mm"
   height="15.902995mm"
   viewBox="0 0 16.543463 15.902995"
   version="1.1"
   id="svg1"
   xml:space="preserve"
   xmlns="http://www.w3.org/2000/svg"
   xmlns:svg="http://www.w3.org/2000/svg"><defs
     id="defs1" /><g
     id="layer1"
     transform="translate(-34.897438,-83.09855)"><path
       style="font-size:15.7801px;font-family:'ADLaM Display';-inkscape-font-specification:'ADLaM Display, Normal';fill:#d52d00;fill-opacity:1;stroke-width:0.75833"
       d="m 39.805599,87.004609 q 1.124948,0 1.84923,0.50854 0.731987,0.50083 1.086423,1.38692 0.362141,0.87839 0.362141,2.01874 0,1.23282 -0.423782,2.21908 -0.416077,0.98626 -1.23282,1.56414 -0.816744,0.57789 -2.026449,0.57789 -0.624115,0 -1.032487,-0.1464 -0.400666,-0.13869 -0.64723,-0.33132 -0.238859,-0.20033 -0.377551,-0.36214 h -0.03082 v 3.28238 q 0,0.18492 -0.07705,0.28509 -0.323616,0.42378 -0.947731,0.91691 -0.107872,0.0771 -0.192628,0.0771 -0.09246,0 -0.192628,-0.0771 -0.331321,-0.25427 -0.562474,-0.47772 -0.223449,-0.22345 -0.385257,-0.43919 -0.07705,-0.10017 -0.07705,-0.28509 v -9.50042 q 0,-0.18492 0.07705,-0.28509 0.161808,-0.21574 0.385257,-0.43919 0.231153,-0.22345 0.562474,-0.47772 0.100166,-0.077 0.208038,-0.077 0.100167,0 0.208039,0.077 0.323615,0.25427 0.554769,0.48542 0.231154,0.23116 0.408371,0.47772 h 0.03853 q 0.130987,-0.16181 0.400667,-0.39296 0.269679,-0.23115 0.762807,-0.40837 0.500834,-0.17722 1.302167,-0.17722 z m -0.947731,6.3105 q 0.832154,0 1.286756,-0.57789 0.462308,-0.58559 0.462308,-1.68742 0,-2.08038 -1.710538,-2.08038 -0.724282,0 -1.071013,0.3005 -0.346731,0.29279 -0.493128,0.62411 v 1.67202 q 0,0.74739 0.385256,1.24823 0.385257,0.50083 1.140359,0.50083 z"
       id="text19-3" /><path
       style="font-size:15.7801px;font-family:'ADLaM Display';-inkscape-font-specification:'ADLaM Display, Normal';fill:#b55690;fill-opacity:1;stroke-width:0.752342"
       d="m 46.247645,94.802579 q 0,0.23116 -0.100167,0.32362 -0.09246,0.0848 -0.323615,0.0848 h -1.587256 q -0.231154,0 -0.33132,-0.0848 -0.09246,-0.0925 -0.09246,-0.32362 V 84.377548 q 0,-0.18493 0.07705,-0.28509 0.323616,-0.42379 0.947731,-0.91691 0.107872,-0.077 0.192628,-0.077 0.100167,0 0.192628,0.077 0.331321,0.25427 0.554769,0.47771 0.231154,0.22345 0.392962,0.4392 0.07705,0.10016 0.07705,0.28509 v 3.736981 h 0.03082 q 0.169512,-0.22345 0.439192,-0.44689 0.269679,-0.23116 0.716577,-0.38526 0.454602,-0.1541 1.155769,-0.1541 0.708871,0 1.363807,0.29279 0.654936,0.2928 1.071013,0.98626 0.416077,0.69346 0.416077,1.89546 v 4.49979 q 0,0.23116 -0.100167,0.32362 -0.09246,0.0848 -0.323615,0.0848 h -1.587255 q -0.231154,0 -0.331321,-0.0848 -0.09246,-0.0925 -0.09246,-0.32362 v -4.07601 q 0,-0.85527 -0.354436,-1.24052 -0.354436,-0.39297 -0.963141,-0.39297 -0.601,0 -0.93232,0.26198 -0.331321,0.26197 -0.508539,0.66264 z"
       id="text20-5" /></g></svg>
